<?xml version="1.0" encoding="utf-8"?>
<!-- Generator: Adobe Illustrator 24.1.1, SVG Export Plug-In . SVG Version: 6.00 Build 0)  -->
<svg version="1.1" id="Layer_4" xmlns="http://www.w3.org/2000/svg" xmlns:xlink="http://www.w3.org/1999/xlink" x="0px" y="0px"
	 viewBox="0 0 1920 1080" style="enable-background:new 0 0 1920 1080;" xml:space="preserve">
<style type="text/css">
	.st0{fill:#FFFFFF;}
</style>
<path class="st0" d="M0,1074V96c0,0-7-39,60-29l39,39l55-58c0,0,67,14,87,37s31,10,93-2s57-12,82,2s73-13,105-16s4-22,56,1
	s31,27,89-1s27-62,87-21s75,28,114,39s63-16,93-20s17-8,64,7s-27,37,60,16s51-35,109-16s37,17,105,16s33,2,94-4s29-27,71-7
	s31,32,66,7s9-11,35-25s3-30,35-14s8,25,54,26s45,0,75,7s22,13,48-3s33-19,59-8s17,16,36,8s49-14,49-14v1001L0,1074z"/>
<path class="st0" d="M0,1080l0.21-967.15c0,0-7-38.33,59.99-28.5l39,38.33l54.99-57c0,0,66.99,13.76,86.99,36.36s31,9.83,92.99-1.97
	s56.99-11.79,81.99,1.97s72.99-12.78,104.99-15.72s4-21.62,55.99,0.98s31,26.53,88.99-0.98c57.99-27.52,27-60.93,86.99-20.64
	S828.12,93.19,867.11,104c39,10.81,62.99-15.72,92.99-19.66c30-3.93,17-7.86,63.99,6.88c46.99,14.74-27,36.36,59.99,15.72
	s50.99-34.4,108.99-15.72c57.99,18.67,37,16.71,104.99,15.72c67.99-0.98,33,1.97,93.99-3.93s29-26.53,70.99-6.88
	c42,19.66,31,31.45,65.99,6.88s9-10.81,35-24.57c26-13.76,3-29.48,35-13.76c32,15.72,8,24.57,53.99,25.55
	c45.99,0.98,45,0,74.99,6.88c30,6.88,22,12.78,47.99-2.95c26-15.72,33-18.67,58.99-7.86s17,15.72,36,7.86S1920,80.41,1920,80.41
	V1080H0z"/>
</svg>
