<svg xmlns="http://www.w3.org/2000/svg" viewBox="0 0 566.93 708.6624999999999" x="0px" y="0px"><title>a </title><g><g><path d="M172.2,402.761H121.877a6.749,6.749,0,0,1-6.706-7.517L140.539,173.35a6.749,6.749,0,0,1,6.706-5.983H356.2a6.75,6.75,0,0,1,0,13.5H153.268L129.443,389.261H172.2a6.75,6.75,0,0,1,0,13.5Z"/><path d="M378,402.761H249.935a6.75,6.75,0,0,1,0-13.5H371.982l20.784-181.836a6.75,6.75,0,1,1,13.413,1.529L384.71,396.777A6.749,6.749,0,0,1,378,402.761Z"/><path d="M397.977,402.761H378a6.75,6.75,0,0,1,0-13.5h19.975a6.75,6.75,0,0,1,0,13.5Z"/><path d="M495.232,402.761H475.718a6.75,6.75,0,0,1,0-13.5h13.6l10.7-80.984L462.346,242.36h-66a6.75,6.75,0,0,1,0-13.5h69.917a6.751,6.751,0,0,1,5.86,3.4l40.745,71.293a6.742,6.742,0,0,1,.831,4.234L501.923,396.9A6.75,6.75,0,0,1,495.232,402.761Z"/><path d="M507.008,313.653H388.191a6.75,6.75,0,0,1,0-13.5H507.008a6.75,6.75,0,1,1,0,13.5Z"/><path d="M142.117,221.6H84.059a6.75,6.75,0,0,1,0-13.5h58.058a6.75,6.75,0,0,1,0,13.5Z"/><path d="M133.332,266.726H59.922a6.75,6.75,0,1,1,0-13.5h73.41a6.75,6.75,0,0,1,0,13.5Z"/><path d="M130.172,313.656H59.922a6.75,6.75,0,0,1,0-13.5h70.25a6.75,6.75,0,0,1,0,13.5Z"/><path d="M211.066,446.7a45.622,45.622,0,1,1,45.621-45.622A45.674,45.674,0,0,1,211.066,446.7Zm0-77.743a32.122,32.122,0,1,0,32.121,32.121A32.158,32.158,0,0,0,211.066,368.952Z"/><path d="M436.849,446.7a45.622,45.622,0,1,1,45.621-45.622A45.674,45.674,0,0,1,436.849,446.7Zm0-77.743a32.122,32.122,0,1,0,32.121,32.121A32.158,32.158,0,0,0,436.849,368.952Z"/><path d="M127.425,354.2h-30.8a6.75,6.75,0,0,1,0-13.5h30.8a6.75,6.75,0,0,1,0,13.5Z"/></g><path d="M396.346,215.062a47.414,47.414,0,1,1,47.413-47.414A47.467,47.467,0,0,1,396.346,215.062Zm0-81.327a33.914,33.914,0,1,0,33.913,33.913A33.952,33.952,0,0,0,396.346,133.735Z"/><path d="M407.062,188.763a6.726,6.726,0,0,1-4.664-1.872l-12.24-11.706a6.747,6.747,0,0,1-2.085-4.878V152.1a6.75,6.75,0,0,1,13.5,0v15.318l10.155,9.713a6.75,6.75,0,0,1-4.666,11.628Z"/></g></svg>