<svg xmlns="http://www.w3.org/2000/svg" xmlns:xlink="http://www.w3.org/1999/xlink" version="1.1" x="0px" y="0px" viewBox="0 0 100 125" style="enable-background:new 0 0 100 100;" xml:space="preserve"><path d="M66,48H46V27h20V48z M48,46h16V29H48V46z"/><path d="M14.9,48.4l-1.1-17.2c-0.1-1.4,0.3-2.7,1.2-3.7c0.8-0.9,1.8-1.4,3-1.4h14c1.2,0,2.2,0.5,3,1.4c0.9,1,1.3,2.4,1.2,3.8  l-1,17.2l-2-0.1l1-17.2c0.1-0.9-0.2-1.7-0.7-2.3C33.1,28.3,32.6,28,32,28H18c-0.6,0-1.1,0.3-1.5,0.8c-0.5,0.6-0.8,1.4-0.7,2.2  l1.1,17.3L14.9,48.4z M24.7,23.6c-3.8,0-7-3.2-7-7.1s3.1-7.1,7-7.1s7,3.2,7,7.1S28.6,23.6,24.7,23.6z M24.7,11.5c-2.7,0-5,2.3-5,5.1  s2.2,5.1,5,5.1s5-2.3,5-5.1S27.5,11.5,24.7,11.5z M29.9,36.4L28,68h-2V47h-2v21h-2l-2-31.6l-2,0.1L20,70h10l1.9-33.5L29.9,36.4z"/><path d="M77.4,77.9H57.3v-2h20.2c3.7,0,7-2.2,8.5-5.6l1.8,0.8C86,75.2,81.9,77.9,77.4,77.9z M39.5,75.9h12.6v2H39.5V75.9z"/><path d="M77.5,50H46v2h31.4c8,0,14.6,6.6,14.6,14.7c0,8-6.5,14.3-14.5,14.3H9.5l5.6-5.5l-1.4-1.4L5.9,82l7.9,8.4l1.4-1.4l-5.6-6  h67.9C86.7,83,94,75.8,94,66.7S86.6,50,77.5,50z"/></svg>