<svg xmlns="http://www.w3.org/2000/svg" xmlns:xlink="http://www.w3.org/1999/xlink" xmlns:serif="http://www.serif.com/" viewBox="0 0 8 10" version="1.1" xml:space="preserve" style="" x="0px" y="0px" fill-rule="evenodd" clip-rule="evenodd" stroke-linejoin="round" stroke-miterlimit="1.41421"><path d="M3.031,5.054c0,0.705 -0.571,1.276 -1.275,1.276c-0.704,0 -1.276,-0.572 -1.276,-1.276c0,-0.704 0.571,-1.275 1.276,-1.275l0,0.319c-0.529,0 -0.957,0.428 -0.957,0.956c0,0.528 0.429,0.957 0.957,0.957c0.528,0 0.956,-0.428 0.956,-0.957l0.319,0Zm4.169,0c0,0.705 -0.571,1.276 -1.276,1.276c-0.703,0 -1.275,-0.572 -1.275,-1.276c0,-0.704 0.571,-1.275 1.275,-1.275l0,0.319c-0.528,0 -0.956,0.428 -0.956,0.956c0,0.528 0.429,0.957 0.956,0.957c0.529,0 0.957,-0.428 0.957,-0.957l0.319,0Zm-5.151,-1.879c-0.001,-0.083 0.042,-0.165 0.12,-0.21l1.779,-1.027c0.106,-0.061 0.24,-0.032 0.312,0.064c0.023,0.027 0.041,0.06 0.051,0.096l0.234,0.872l0.975,0c0.132,0 0.24,0.107 0.24,0.24c0,0.132 -0.108,0.24 -0.24,0.24l-1.162,0c-0.116,0 -0.213,-0.083 -0.235,-0.192c-0.002,-0.005 -0.003,-0.01 -0.005,-0.016l-0.197,-0.735l-1.156,0.668l1.55,0.896c0.021,0.012 0.039,0.026 0.055,0.043c0.009,0.004 0.017,0.008 0.025,0.013c0.115,0.066 0.155,0.213 0.088,0.328l-0.732,1.269c-0.067,0.115 -0.214,0.154 -0.328,0.088c-0.115,-0.067 -0.154,-0.213 -0.088,-0.328l0.617,-1.069l-1.783,-1.029c-0.078,-0.045 -0.121,-0.127 -0.12,-0.211Zm2.691,-1.825c0.232,0 0.42,0.188 0.42,0.42c0,0.232 -0.188,0.42 -0.42,0.42c-0.232,0 -0.42,-0.188 -0.42,-0.42c0,-0.232 0.188,-0.42 0.42,-0.42Z"/><text x="0" y="23" fill="#000000" font-size="5px" font-weight="bold" font-family="'Helvetica Neue', Helvetica, Arial-Unicode, Arial, Sans-serif">Created by Sakchai Ruankam</text><text x="0" y="28" fill="#000000" font-size="5px" font-weight="bold" font-family="'Helvetica Neue', Helvetica, Arial-Unicode, Arial, Sans-serif">from the Noun Project</text></svg>